<?xml version="1.0" encoding="UTF-8"?>
<svg width="32" height="32" viewBox="0 0 32 32" xmlns="http://www.w3.org/2000/svg">
  <!-- Background Circle with Gradient -->
  <defs>
    <linearGradient id="faviconGradient" x1="0%" y1="0%" x2="100%" y2="100%">
      <stop offset="0%" style="stop-color:#2563eb;stop-opacity:1" />
      <stop offset="100%" style="stop-color:#3b82f6;stop-opacity:1" />
    </linearGradient>
  </defs>
  
  <circle cx="16" cy="16" r="16" fill="url(#faviconGradient)"/>
  
  <!-- PDF Icon -->
  <g transform="translate(6, 6) scale(0.6)">
    <path d="M24,2H8C6.9,2,6,2.9,6,4v24c0,1.1,0.9,2,2,2h16c1.1,0,2-0.9,2-2V4C26,2.9,25.1,2,24,2z" fill="#f87171"/>
    <path d="M14,16.5h-2v-3h2c0.8,0,1.5,0.7,1.5,1.5S14.8,16.5,14,16.5z" fill="white"/>
    <path d="M11,18h3l2,4h2l-2-4c1.1-0.3,2-1.3,2-2.5c0-1.4-1.1-2.5-2.5-2.5H10v9h1V18z" fill="white"/>
    <path d="M19,18h-2v3h2c0.8,0,1.5-0.7,1.5-1.5S19.8,18,19,18z" fill="white"/>
    <path d="M19,17c1.4,0,2.5,1.1,2.5,2.5c0,1.4-1.1,2.5-2.5,2.5h-3v-5H19z" fill="white"/>
  </g>
  
  <!-- Smile -->
  <path d="M16,24 C18.5,24 20.7,22.8 22,21" stroke="white" stroke-width="2" stroke-linecap="round" fill="none" />
  <path d="M10,21 C11.3,22.8 13.5,24 16,24" stroke="white" stroke-width="2" stroke-linecap="round" fill="none" />
</svg>
