<?xml version="1.0" encoding="UTF-8"?>
<svg width="200" height="60" viewBox="0 0 200 60" xmlns="http://www.w3.org/2000/svg">
  <!-- Background Rectangle with Gradient -->
  <defs>
    <linearGradient id="logoGradient" x1="0%" y1="0%" x2="100%" y2="0%">
      <stop offset="0%" style="stop-color:#2563eb;stop-opacity:1" />
      <stop offset="100%" style="stop-color:#3b82f6;stop-opacity:1" />
    </linearGradient>
  </defs>
  
  <!-- PDF Icon -->
  <g transform="translate(10, 10)">
    <path d="M24,2H8C6.9,2,6,2.9,6,4v24c0,1.1,0.9,2,2,2h16c1.1,0,2-0.9,2-2V4C26,2.9,25.1,2,24,2z" fill="#f87171"/>
    <path d="M14,16.5h-2v-3h2c0.8,0,1.5,0.7,1.5,1.5S14.8,16.5,14,16.5z" fill="white"/>
    <path d="M11,18h3l2,4h2l-2-4c1.1-0.3,2-1.3,2-2.5c0-1.4-1.1-2.5-2.5-2.5H10v9h1V18z" fill="white"/>
    <path d="M19,18h-2v3h2c0.8,0,1.5-0.7,1.5-1.5S19.8,18,19,18z" fill="white"/>
    <path d="M19,17c1.4,0,2.5,1.1,2.5,2.5c0,1.4-1.1,2.5-2.5,2.5h-3v-5H19z" fill="white"/>
  </g>
  
  <!-- Text "SmileyPDF" -->
  <text x="50" y="35" font-family="Arial, sans-serif" font-size="24" font-weight="bold" fill="#2563eb">
    Smiley<tspan fill="#f87171">PDF</tspan>
  </text>
  
  <!-- Smile Icon -->
  <path d="M180,30 C180,38.8 172.8,46 164,46 C155.2,46 148,38.8 148,30 C148,21.2 155.2,14 164,14 C172.8,14 180,21.2 180,30 Z" fill="#facc15" />
  <path d="M164,38 C167.5,38 170.7,36.3 172.5,33.5 M155.5,33.5 C157.3,36.3 160.5,38 164,38" stroke="#000000" stroke-width="2" stroke-linecap="round" fill="none" />
  <circle cx="158" cy="26" r="2" fill="#000000" />
  <circle cx="170" cy="26" r="2" fill="#000000" />
</svg>
